HIERARCHY
ROOT Hips
{
  OFFSET 0.000000 0.000000 0.000000
  CHANNELS 6 Xposition Yposition Zposition Xrotation Yrotation Zrotation
  JOINT Spine
  {
    OFFSET 0.211591 24.227834 -3.764787
    CHANNELS 3 Xrotation Yrotation Zrotation
    JOINT Chest
    {
      OFFSET 0.211591 24.227834 -3.764787
      CHANNELS 3 Xrotation Yrotation Zrotation
      JOINT Neck
      {
        OFFSET -1.100772 8.441563 -3.430650
        CHANNELS 3 Xrotation Yrotation Zrotation
        JOINT Head
        {
          OFFSET -1.192129 7.757112 -7.601908
          CHANNELS 3 Xrotation Yrotation Zrotation
          End Site
          {
            OFFSET -0.357639 2.327134 -2.280572
          }
        }
      }
      JOINT LeftShoulder
      {
        OFFSET 17.192089 0.613400 -1.554494
        CHANNELS 3 Xrotation Yrotation Zrotation
        JOINT LeftArm
        {
          OFFSET 6.822346 -20.001605 -11.416031
          CHANNELS 3 Xrotation Yrotation Zrotation
          JOINT LeftForeArm
          {
            OFFSET -10.811707 -3.287858 -20.004664
            CHANNELS 3 Xrotation Yrotation Zrotation
            JOINT LeftHand
            {
              OFFSET -2.972239 -0.032078 -2.791873
              CHANNELS 3 Xrotation Yrotation Zrotation
              End Site
              {
                OFFSET -0.891672 -0.009623 -0.837562
              }
            }
          }
        }
      }
      JOINT RightShoulder
      {
        OFFSET -17.192089 -0.613400 1.554494
        CHANNELS 3 Xrotation Yrotation Zrotation
        JOINT RightArm
        {
          OFFSET -7.078612 -20.128798 -9.457155
          CHANNELS 3 Xrotation Yrotation Zrotation
          JOINT RightForeArm
          {
            OFFSET 6.068787 -1.370308 -22.325569
            CHANNELS 3 Xrotation Yrotation Zrotation
            JOINT RightHand
            {
              OFFSET 2.627653 0.279547 -3.282648
              CHANNELS 3 Xrotation Yrotation Zrotation
              End Site
              {
                OFFSET 0.788296 0.083864 -0.984794
              }
            }
          }
        }
      }
    }
  }
  JOINT LeftUpLeg
  {
    OFFSET 11.367086 0.027478 -2.758015
    CHANNELS 3 Xrotation Yrotation Zrotation
    JOINT LeftLeg
    {
      OFFSET 2.451199 -39.057141 -4.768226
      CHANNELS 3 Xrotation Yrotation Zrotation
      JOINT LeftFoot
      {
        OFFSET 10.058204 -39.973237 0.774249
        CHANNELS 3 Xrotation Yrotation Zrotation
        End Site
        {
          OFFSET 3.017461 -11.991971 0.232275
        }
      }
    }
  }
  JOINT RightUpLeg
  {
    OFFSET -11.367086 -0.027478 2.758015
    CHANNELS 3 Xrotation Yrotation Zrotation
    JOINT RightLeg
    {
      OFFSET -4.668361 -37.080477 -5.635053
      CHANNELS 3 Xrotation Yrotation Zrotation
      JOINT RightFoot
      {
        OFFSET -2.542494 -41.040053 5.594103
        CHANNELS 3 Xrotation Yrotation Zrotation
        End Site
        {
          OFFSET -0.762748 -12.312016 1.678231
        }
      }
    }
  }
}
MOTION
Frames: 8
Frame Time: 0.083333
0.000000 60.000000 0.000000 -0.947731 0.087041 0.456756 -0.947731 0.087041 0.456756 0.000000 0.000000 0.000000 -1.096270 -1.012926 -0.823959 5.000000 0.000000 0.000000 1.736840 0.323090 0.456205 7.645937 -0.590864 -0.773710 0.000000 0.000000 0.000000 0.000000 0.000000 0.000000 0.794111 -0.282190 0.002214 2.851025 -0.309081 0.159378 0.000000 0.000000 0.000000 0.000000 0.000000 0.000000 -1.008250 -0.058316 -0.046374 -1.995844 -0.494974 0.137474 0.000000 0.000000 0.000000 -1.191986 0.339623 -1.513327 -3.231983 0.345426 0.862852 0.000000 0.000000 0.000000
0.404420 60.000000 1.105835 -0.697435 0.072172 0.388394 -0.697435 0.072172 0.388394 0.000000 0.000000 0.000000 -0.987918 -1.328574 -1.138276 5.000000 0.000000 0.000000 1.727130 0.300571 0.481776 6.827943 -0.554870 -0.692341 0.000000 0.000000 0.000000 0.000000 0.000000 0.000000 1.046602 -0.311869 -0.114333 2.632807 -0.255006 0.145843 0.000000 0.000000 0.000000 0.000000 0.000000 0.000000 -1.176341 -0.094672 0.327559 -1.612290 -0.401260 0.083433 0.000000 0.000000 0.000000 -0.908458 0.283776 -1.338881 -3.100452 0.313015 0.732276 0.000000 0.000000 0.000000
1.336399 60.000000 4.095054 -1.297711 0.155968 0.863712 -1.297711 0.155968 0.863712 0.000000 0.000000 0.000000 -2.605943 -5.095475 -4.483274 5.000000 0.000000 0.000000 4.794206 0.739373 1.475076 17.060041 -1.466984 -1.734552 0.000000 0.000000 0.000000 0.000000 0.000000 0.000000 3.649363 -0.860225 -0.830601 6.692520 -0.622859 0.367945 0.000000 0.000000 0.000000 0.000000 0.000000 0.000000 -3.506657 -0.361891 1.960679 -3.614312 -0.870919 0.676805 0.000000 0.000000 0.000000 -4.553161 0.833493 -2.373584 -4.844736 0.381659 0.454555 0.000000 0.000000 0.000000
2.260113 60.000000 8.201629 -0.519397 0.102127 0.610902 -0.519397 0.102127 0.610902 0.000000 0.000000 0.000000 -3.217530 -10.855344 -9.817617 5.000000 0.000000 0.000000 6.650384 0.772036 2.415794 19.823885 -1.949415 -2.029175 0.000000 0.000000 0.000000 0.000000 0.000000 0.000000 6.869982 -0.923422 -2.827398 7.819136 -0.812956 0.423600 0.000000 0.000000 0.000000 0.000000 0.000000 0.000000 -4.450045 -0.718379 5.131627 -3.365950 -0.684274 2.873331 0.000000 0.000000 0.000000 -4.998748 1.026145 -3.500364 -6.583363 0.436425 0.034608 0.000000 0.000000 0.000000
2.612822 60.000000 12.603205 -0.718360 0.012630 0.045279 -0.718360 0.012630 0.045279 0.000000 0.000000 0.000000 -2.402600 -14.846150 -13.926081 5.000000 0.000000 0.000000 6.906099 0.839514 2.429007 21.794850 -2.389009 -2.254487 0.000000 0.000000 0.000000 0.000000 0.000000 0.000000 8.444821 -0.206886 -5.047744 7.566195 -1.362591 0.409243 0.000000 0.000000 0.000000 0.000000 0.000000 0.000000 -0.561690 -0.865287 6.709831 -3.594637 -0.566645 6.328091 0.000000 0.000000 0.000000 -4.038409 1.442778 -7.817194 -10.466374 0.882033 0.898799 0.000000 0.000000 0.000000
2.479909 60.000000 14.737109 -1.198781 -0.064741 -0.445162 -1.198781 -0.064741 -0.445162 0.000000 0.000000 0.000000 1.251121 -15.792565 -16.353463 5.000000 0.000000 0.000000 6.640249 2.103659 0.252094 26.258675 -3.192661 -2.782663 0.000000 0.000000 0.000000 0.000000 0.000000 0.000000 10.116491 -1.092803 -4.455325 8.775586 -1.955291 0.451782 0.000000 0.000000 0.000000 0.000000 0.000000 0.000000 5.128186 -1.178859 8.902192 -1.871834 -0.293953 4.709879 0.000000 0.000000 0.000000 -4.796412 1.997739 -13.215892 -15.115103 1.139155 0.831811 0.000000 0.000000 0.000000
2.522454 60.000000 14.161507 -1.489170 -0.150913 -0.991462 -1.489170 -0.150913 -0.991462 0.000000 0.000000 0.000000 3.515864 -17.786326 -19.355368 5.000000 0.000000 0.000000 3.164406 3.742121 -4.304008 30.540228 -3.536743 -3.317923 0.000000 0.000000 0.000000 0.000000 0.000000 0.000000 8.782881 -4.120402 1.484853 9.664541 -2.945604 0.448680 0.000000 0.000000 0.000000 0.000000 0.000000 0.000000 11.644228 -1.289623 8.989399 -0.285700 0.030061 4.352019 0.000000 0.000000 0.000000 -9.663349 2.124088 -14.245727 -18.263729 0.622387 -1.802954 0.000000 0.000000 0.000000
2.893939 60.000000 12.618531 -0.299446 -0.319277 -2.100094 -0.299446 -0.319277 -2.100094 0.000000 0.000000 0.000000 2.993038 -18.534848 -19.904714 5.000000 0.000000 0.000000 1.443481 3.957523 -5.782604 30.051932 -3.625038 -3.260207 0.000000 0.000000 0.000000 0.000000 0.000000 0.000000 8.859856 -6.508281 5.521737 12.337781 -3.689567 0.512384 0.000000 0.000000 0.000000 0.000000 0.000000 0.000000 12.768672 -1.170818 8.420125 -2.756548 -0.451425 4.846760 0.000000 0.000000 0.000000 -8.341645 2.186598 -14.976284 -19.489508 0.799031 -1.457565 0.000000 0.000000 0.000000
